<svg width="658" height="558" viewBox="0 0 658 558" fill="none" xmlns="http://www.w3.org/2000/svg">
<path d="M609.5 20.3334C628.5 20.3334 642.833 37 635.167 68L542.167 506.333C535.667 537.5 516.833 545 490.833 530.5L269 366.667C268.14 366.049 267.439 365.236 266.955 364.294C266.472 363.352 266.22 362.309 266.22 361.25C266.22 360.191 266.472 359.148 266.955 358.206C267.439 357.264 268.14 356.451 269 355.833L525.167 124.5C536.833 114.167 522.667 109.167 507.333 118.5L185.833 321.333C184.858 321.969 183.751 322.375 182.596 322.519C181.441 322.664 180.268 322.543 179.167 322.167L42.6667 279C12.3334 270.167 12.3334 249.333 49.5001 234.5L595.667 23.8334C599.998 21.7554 604.702 20.5654 609.5 20.3334Z" stroke="white" stroke-width="39.67" stroke-linecap="round" stroke-linejoin="round"/>
</svg>
