<svg width="135" height="183" viewBox="0 0 135 183" fill="none" xmlns="http://www.w3.org/2000/svg">
<path d="M0.618222 86.1613L3.17619 85.2999C4.77028 84.7631 6.30624 84.0671 7.76081 83.2224L10.0855 81.8724C10.9446 81.3735 11.7149 80.7354 12.3649 79.9841L12.4864 79.8437C13.3998 78.7879 14.0304 77.5177 14.3193 76.1518V76.1518C14.5505 75.0586 14.5572 73.9297 14.339 72.8338L13.6261 69.252C13.2777 67.5017 12.7503 65.7918 12.0523 64.1493L8.28987 55.2966L5.6591 48.1756C4.9487 46.2528 4.39083 44.2769 3.99065 42.2665L3.55736 40.0897C2.88151 36.6943 2.85453 33.2017 3.47783 29.7963L3.54005 29.4563C4.1173 26.3026 5.28171 23.2853 6.97272 20.5613L7.04685 20.4419C7.78682 19.2499 8.62986 18.1251 9.56629 17.0804L11.1287 15.3372C12.1173 14.2343 13.3057 13.3283 14.6311 12.6671V12.6671C15.5651 12.2011 16.5571 11.8618 17.5808 11.658L19.79 11.2183C21.3331 10.9111 22.8989 10.732 24.4714 10.6827L28.2106 10.5656L34.4767 10.3417L43.2037 9.62801L43.4485 9.57928C48.747 8.52462 53.9621 7.08752 59.0529 5.27926V5.27926L65.1192 2.96328C66.673 2.37008 68.274 1.90868 69.9052 1.58399L71.0062 1.36485C72.7867 1.01042 74.6057 0.888205 76.4177 1.00124V1.00124C78.5011 1.13121 80.5535 1.57082 82.5073 2.30559L84.8114 3.1721C85.8538 3.56411 86.8412 4.08902 87.7492 4.73383V4.73383C89.0767 5.67656 90.2144 6.86134 91.1026 8.22597L91.1472 8.29449C91.5311 8.8844 91.8679 9.50371 92.1543 10.1466L93.6624 13.5316C94.835 16.1634 95.8172 18.876 96.6014 21.6485L98.3012 27.6574L99.5697 32.8832C100.618 37.2026 101.327 41.5976 101.689 46.0277L101.749 46.7605C102.06 50.5571 102.082 54.3717 101.817 58.1716V58.1716L101.658 59.6386C101.324 62.7172 100.622 65.7446 99.5663 68.6559L99.3758 69.1815C98.8744 70.5647 98.2748 71.9102 97.5816 73.2078V73.2078C95.6444 76.8344 93.0025 80.0377 89.811 82.6298L89.3609 82.9954L86.9159 84.5535C83.1063 86.9814 79.0659 89.0265 74.8538 90.6589V90.6589L63.9598 93.3391L53.7882 95.3637L45.7995 96.051C43.0822 96.2848 40.349 96.2659 37.6351 95.9945L34.2843 95.6595C32.4023 95.4714 30.5561 95.02 28.7996 94.3186L27.3434 93.7371C25.1728 92.8703 23.2531 91.4752 21.7585 89.6783V89.6783C20.4525 88.108 19.5049 86.2716 18.982 84.2972L18.4252 82.1949C17.954 80.4157 17.6901 78.588 17.6388 76.7482L17.4936 71.5448L17.1832 69.4587C16.7182 66.3345 15.851 63.2835 14.6033 60.3818L14.5658 60.2948C13.7285 58.3475 12.7187 56.479 11.5487 54.7116L11.1861 54.164C9.6803 51.8894 8.48471 49.4241 7.63098 46.8333L6.74779 44.1531C6.47233 43.3172 6.31069 42.448 6.26722 41.5689L6.19554 40.1193C6.13817 38.9593 6.45548 37.8117 7.10058 36.8459V36.8459C7.40025 36.3972 7.76532 35.9959 8.18369 35.6552L9.52601 34.5622C9.87223 34.2802 10.2547 34.0461 10.6633 33.866V33.866C12.0573 33.2516 13.6556 33.3081 15.0027 34.0195L15.0406 34.0395C15.6211 34.346 16.1366 34.7623 16.5585 35.2652L18.3164 37.3605C19.2497 38.4729 20.0527 39.6885 20.7097 40.9835L21.6858 42.9077V42.9077C22.9057 46.1843 23.8614 49.5533 24.544 52.9823L24.6615 53.5729L25.5706 64.1377L25.4968 73.1925L24.5963 80.6255C24.2959 83.1054 24.4654 85.6196 25.0961 88.0367V88.0367C25.418 89.2704 25.8579 90.4704 26.4096 91.6199L27.3541 93.5879C28.1098 95.1626 29.1013 96.6127 30.2943 97.8883V97.8883C31.6834 99.3735 33.3251 100.6 35.1431 101.511L35.8423 101.862C36.9519 102.418 38.1075 102.877 39.2962 103.234L40.3416 103.548C42.3197 104.143 44.3477 104.556 46.4005 104.784L46.8159 104.83C49.2438 105.1 51.6917 105.139 54.127 104.948L56.3954 104.77C59.0421 104.562 61.6639 104.11 64.2274 103.42L65.02 103.206C66.7761 102.733 68.4903 102.117 70.1452 101.363L70.6219 101.145C72.1874 100.432 73.6827 99.5736 75.0882 98.5813L76.746 97.4109C77.8157 96.6558 78.9889 96.0591 80.2292 95.6396L81.2179 95.3051C81.7595 95.1219 82.3241 95.0152 82.8952 94.988L83.5699 94.9558C84.7512 94.8996 85.9071 95.3106 86.7878 96.1L86.8409 96.1477C87.5314 96.7667 88.0025 97.5929 88.1836 98.5023L88.2056 98.6133C88.3503 99.3402 88.2847 100.093 88.0166 100.784V100.784C87.7686 101.423 87.3565 101.985 86.8219 102.414L85.4954 103.478C84.4818 104.291 83.3226 104.904 82.0798 105.283L79.1373 106.181L77.4339 106.788C74.964 107.669 72.425 108.342 69.8433 108.802V108.802C67.0541 109.298 64.226 109.542 61.393 109.532L53.8738 109.504L49.8468 109.895C49.1868 109.959 48.5354 110.092 47.9034 110.293L45.7973 110.961C44.9754 111.222 44.276 111.771 43.8286 112.509L43.7929 112.567C43.3535 113.292 43.2014 114.154 43.3668 114.985V114.985C43.4973 115.64 43.8189 116.243 44.2911 116.716L44.5933 117.018C45.0408 117.467 45.5728 117.822 46.1584 118.064L47.5285 118.63C48.6195 119.08 49.7701 119.37 50.9444 119.49L53.7005 119.772L55.4222 119.763C57.7901 119.751 60.1515 119.512 62.4739 119.049V119.049C65.6017 118.427 68.6363 117.404 71.5027 116.006L73.0929 115.23L78.2463 111.987L80.7903 110.753C81.4781 110.419 82.1921 110.143 82.9253 109.926L84.2203 109.544C84.9789 109.32 85.7719 109.235 86.5607 109.294L87.6068 109.372C88.1794 109.415 88.7276 109.622 89.1855 109.968L89.4045 110.134C89.8464 110.468 90.1502 110.953 90.2583 111.496V111.496C90.3804 112.11 90.2432 112.746 89.8793 113.255L88.8275 114.724C88.4871 115.2 88.0835 115.627 87.6278 115.993L86.7006 116.739C85.5288 117.682 84.223 118.444 82.8263 119.001L82.2867 119.217C81.209 119.647 80.0943 119.977 78.9564 120.203L65.4094 122.9L59.777 123.423C58.1792 123.572 56.5692 123.524 54.9831 123.281L52.6864 122.928C51.9448 122.814 51.189 122.831 50.4531 122.977L49.5867 123.15C49.0557 123.255 48.5615 123.498 48.153 123.853V123.853C47.8919 124.08 47.6706 124.349 47.498 124.649L47.1887 125.186C46.9786 125.551 46.8292 125.948 46.7463 126.36V126.36C46.5515 127.33 46.7332 128.337 47.2543 129.177L47.2905 129.235C47.7202 129.928 48.3483 130.475 49.0931 130.806L50.3356 131.359C50.8644 131.594 51.4158 131.774 51.9813 131.896L52.9597 132.109C54.4676 132.436 56.0111 132.57 57.5529 132.509L59.2107 132.443C60.8417 132.378 62.4651 132.185 64.066 131.866L64.2006 131.84C66.5473 131.372 68.8363 130.651 71.0271 129.689L77.4939 126.85C79.0341 126.173 80.5132 125.366 81.9149 124.435L85.06 122.349C85.4737 122.074 85.9271 121.865 86.4043 121.728L86.8461 121.601C87.3537 121.455 87.8903 121.442 88.4045 121.562V121.562C89.1653 121.741 89.8368 122.21 90.2724 122.859V122.859C90.6136 123.367 90.804 123.971 90.8109 124.583L90.8158 125.028C90.8256 125.904 90.5872 126.764 90.1282 127.509L89.66 128.27C89.3248 128.814 88.9232 129.315 88.4645 129.761L88.146 130.07C87.2061 130.983 86.1145 131.725 84.9199 132.263L82.6558 133.283L80.5946 133.918C77.7944 134.78 74.9326 135.428 72.0341 135.855V135.855C68.318 136.404 64.5573 136.588 60.8055 136.406L58.18 136.279L55.9852 136.082C55.4828 136.036 54.9765 136.064 54.4818 136.162L53.9414 136.27C53.4926 136.359 53.0708 136.551 52.7094 136.832V136.832C52.1137 137.295 51.7179 137.968 51.6036 138.713L51.5867 138.823C51.5194 139.261 51.5433 139.709 51.6569 140.138L51.7545 140.506C52.0255 141.53 52.611 142.442 53.4283 143.115L53.449 143.132C53.8192 143.436 54.2302 143.688 54.6701 143.878L55.0064 144.024C55.9486 144.433 56.9625 144.65 57.9892 144.663L62.0763 144.714L69.0647 143.834L70.2239 143.604C72.2905 143.192 74.3153 142.594 76.2731 141.815V141.815C78.3104 141.004 80.2661 140.002 82.1141 138.822L87.736 135.233C88.0851 135.01 88.4726 134.854 88.8788 134.773L89.4208 134.666C89.9408 134.562 90.4806 134.669 90.9214 134.964V134.964C91.3623 135.258 91.668 135.716 91.7715 136.236L92.0016 137.391C92.2331 138.555 92.0297 139.763 91.4299 140.786L91.1649 141.238C90.6139 142.178 89.8257 142.957 88.8791 143.497L87.0307 144.551C85.8623 145.217 84.6051 145.714 83.2968 146.026L80.182 146.769C77.8261 147.331 75.4202 147.658 72.9997 147.744L65.0902 148.027C64.4357 148.05 63.7804 148.027 63.1292 147.958L60.2333 147.648C59.1284 147.53 58.0151 147.775 57.0617 148.346V148.346C56.6212 148.61 56.2229 148.938 55.8803 149.321L55.4812 149.766C54.9863 150.318 54.6647 151.004 54.5564 151.737L54.5389 151.856C54.4228 152.643 54.5826 153.446 54.9913 154.128V154.128C55.4082 154.824 56.0577 155.351 56.8251 155.615L57.3886 155.809C57.685 155.912 57.9902 155.986 58.3003 156.032L59.0255 156.139C59.8693 156.263 60.7233 156.304 61.5752 156.261L66.0355 156.036V156.036C70.2077 155.319 74.321 154.294 78.3417 152.969L80.1454 152.375L87.8577 149.134L90.1367 147.834C90.7406 147.49 91.45 147.379 92.1303 147.523L92.2883 147.556C93.0903 147.726 93.7602 148.274 94.0851 149.027V149.027C94.3604 149.665 94.3611 150.387 94.0869 151.026L93.7046 151.915C93.3958 152.634 92.9152 153.266 92.3049 153.756L91.1916 154.649C90.1128 155.514 88.8735 156.158 87.5451 156.542L83.9133 157.595L83.3753 157.676C78.8845 158.36 74.3483 158.701 69.8058 158.697V158.697L65.0478 158.916C64.5024 158.942 63.9597 159.008 63.4243 159.114L62.1213 159.374C61.4558 159.506 60.8264 159.78 60.2754 160.176L60.061 160.33C59.6713 160.61 59.3435 160.967 59.0983 161.38L58.8363 161.82C58.5072 162.374 58.4238 163.04 58.6063 163.658V163.658C58.7595 164.177 59.0899 164.626 59.5399 164.926L59.9733 165.216C60.2677 165.412 60.5885 165.566 60.9261 165.673L61.7145 165.923C63.2516 166.409 64.8867 166.499 66.4678 166.184L70.9481 165.292L85.4855 160.352L89.748 159.503C90.2922 159.395 90.8518 159.388 91.3986 159.482L92.3259 159.642C92.6776 159.703 93.0005 159.875 93.2472 160.132V160.132C93.8739 160.788 93.862 161.824 93.2203 162.464L92.2444 163.438C91.9601 163.722 91.623 163.947 91.252 164.102L88.4469 165.267C87.0216 165.86 85.5274 166.271 83.9996 166.491L77.0151 167.496L70.2887 168.835L67.1301 169.464C66.5132 169.586 65.9412 169.875 65.4754 170.297L64.6781 171.021C64.27 171.391 64.0861 171.948 64.1937 172.489V172.489C64.2511 172.777 64.3884 173.044 64.5899 173.258L64.7871 173.467C65.1614 173.865 65.6525 174.133 66.1895 174.233L67.3309 174.446C67.7888 174.531 68.2549 174.564 68.7202 174.543L70.655 174.459C71.8274 174.407 72.9941 174.266 74.145 174.037L77.5019 173.369L82.4571 171.7L85.7435 170.626C86.2185 170.471 86.7153 170.392 87.2151 170.393L88.314 170.394C88.7683 170.394 89.2065 170.562 89.5448 170.865L89.6051 170.919C90.0184 171.29 90.2237 171.839 90.1543 172.39V172.39C90.0983 172.835 89.8677 173.24 89.5133 173.515L88.2257 174.515C87.6849 174.935 87.072 175.252 86.4172 175.452L84.3589 176.08C83.1789 176.44 81.9639 176.673 80.7344 176.775L76.7112 177.108L72.4872 177.66C72.0091 177.723 71.5919 178.015 71.37 178.443V178.443C71.0141 179.13 71.2495 179.975 71.9092 180.378L72.8455 180.951C73.1214 181.12 73.4259 181.236 73.7439 181.296L76.8053 181.866L79.1226 182.108C80.923 182.297 82.7428 182.083 84.4503 181.482V181.482C85.6887 181.047 86.8486 180.414 87.8855 179.609L91.5756 176.744C92.5855 175.96 93.379 174.932 93.8811 173.756L93.9923 173.495C94.4094 172.518 94.5769 171.453 94.4797 170.395V170.395C94.3849 169.363 94.542 168.324 94.9374 167.366L95.7163 165.479V165.479C96.6917 163.744 97.0142 161.717 96.6256 159.765L96.4626 158.946C96.1495 157.373 96.1975 155.75 96.6031 154.198L97.2466 151.736C97.5007 150.764 97.5308 149.746 97.3347 148.761V148.761C97.1439 147.802 96.7438 146.898 96.1631 146.111L96.1111 146.041C95.4962 145.209 95.0725 144.251 94.8705 143.236L94.8452 143.109C94.5712 141.732 94.6832 140.307 95.1689 138.99L96.3567 135.769C96.4723 135.456 96.5427 135.128 96.566 134.795V134.795C96.6288 133.896 96.3447 133.006 95.772 132.31L93.7702 129.876C93.454 129.492 93.2377 129.035 93.1405 128.547V128.547C93.0241 127.962 93.0834 127.356 93.311 126.804L94.3136 124.375C94.6328 123.602 94.716 122.752 94.5527 121.931V121.931C94.4169 121.249 94.1154 120.611 93.6746 120.073L93.152 119.435C92.7525 118.948 92.4792 118.37 92.3562 117.751V117.751C92.2431 117.183 92.26 116.597 92.4057 116.036L92.6816 114.974C93.2879 112.64 92.8897 110.159 91.5834 108.132L90.6147 106.628C90.1673 105.934 89.9173 105.131 89.8914 104.306V104.306C89.8754 103.794 89.9457 103.284 90.0994 102.796L90.6045 101.192C91.2864 99.0271 91.4115 96.7251 90.9684 94.4988L90.2823 91.0523C90.1278 90.2758 90.2421 89.4698 90.6064 88.767V88.767C90.8837 88.232 91.2949 87.7781 91.7999 87.4494L93.3881 86.4156C93.8284 86.1291 94.2469 85.8104 94.6402 85.4622L95.4842 84.7151C96.8439 83.5115 98.0709 82.1658 99.1441 80.701V80.701C100.211 79.2453 101.121 77.6766 101.857 76.0287V76.0287C102.453 74.693 102.934 73.3056 103.293 71.8876L103.709 70.2465L104.593 66.7984C104.771 66.1023 104.9 65.3945 104.979 64.6802L105.082 63.7404C105.177 62.878 105.398 62.0343 105.738 61.2364L105.781 61.1379C106.405 59.6743 107.43 58.4167 108.738 57.5094V57.5094C109.692 56.8477 110.771 56.3893 111.91 56.1627L113.381 55.8698C114.527 55.6417 115.695 55.5424 116.863 55.574L122.651 55.7303L127.347 55.4875C129.602 55.3709 131.82 54.8684 133.905 54.0019V54.0019" stroke="#3E3E3E"/>
</svg>
